Coordinates
version=1
nRows=12
nColumns=34
inDegrees=yes

Units are S.I. units (second, meters, Newtons, ...)
Angles are in degrees.

endheader
time	pelvis_tilt	pelvis_list	pelvis_rotation	pelvis_tx	pelvis_ty	pelvis_tz	hip_flexion_r	hip_adduction_r	hip_rotation_r	knee_angle_r	ankle_angle_r	subtalar_angle_r	mtp_angle_r	hip_flexion_l	hip_adduction_l	hip_rotation_l	knee_angle_l	socket_flexion	socket_adduction	socket_rotation	socket_tx	socket_ty	socket_tz	pros_ankle_rx	pros_ankle_ry	pros_ankle_rz	pros_ankle_tx	pros_ankle_ty	pros_ankle_tz	foot_flex	lumbar_extension	lumbar_bending	lumbar_rotation
      0.00000000	     -4.12553285	     -8.46876767	     -7.89188593	     -0.75684324	      1.03992827	      0.32821106	    -18.31953907	      9.31658359	     -3.52886283	     -2.93073904	     -0.78230944	     25.89656035	     36.48890682	     28.60125020	     -9.22302517	      1.22506941	     -5.81326772	      0.00000000	      0.00000000	      0.00000000	      0.00000000	      0.00248889	      0.00000000	      0.00000000	      0.00000000	      0.00000000	      0.00000000	      0.00000000	      0.00000000	      0.42395607	    -15.59367004	      2.93059415	      8.85656027
      0.00416667	     -4.09384395	     -8.49624992	     -7.97897030	     -0.75160823	      1.03888469	      0.32847557	    -18.55584309	      9.25788273	     -3.44387046	     -3.11347832	     -0.78297664	     25.92310738	     36.51567081	     28.63020392	     -9.19477207	      1.24208424	     -5.97369524	      0.00000000	      0.00000000	      0.00000000	      0.00000000	      0.00236794	      0.00000000	      0.00000000	      0.00000000	      0.00000000	      0.00000000	      0.00000000	      0.00000000	      0.04786154	    -15.58621089	      2.89014154	      8.87141270
      0.00833333	     -4.07821103	     -8.52863646	     -8.08432028	     -0.74610890	      1.03778690	      0.32877714	    -18.78005222	      9.19459567	     -3.36929803	     -3.30522174	     -0.79863177	     25.95339543	     36.54557807	     28.67100620	     -9.18214489	      1.26636312	     -6.16549168	      0.00000000	      0.00000000	      0.00000000	      0.00000000	      0.00220698	      0.00000000	      0.00000000	      0.00000000	      0.00000000	      0.00000000	      0.00000000	      0.00000000	     -0.31837994	    -15.57849715	      2.85082108	      8.90552789
      0.01250000	     -4.03870255	     -8.58165441	     -8.22151231	     -0.74052815	      1.03670535	      0.32912064	    -18.99451619	      9.13702856	     -3.24805265	     -3.58877752	     -0.81908212	     26.02001464	     36.62192362	     28.66515785	     -9.20072761	      1.27660473	     -6.32512004	      0.00000000	      0.00000000	      0.00000000	      0.00000000	      0.00192149	      0.00000000	      0.00000000	      0.00000000	      0.00000000	      0.00000000	      0.00000000	      0.00000000	     -0.84239483	    -15.62166718	      2.77652328	      9.00991692
      0.01666667	     -4.00137658	     -8.61976716	     -8.32184696	     -0.73473169	      1.03555201	      0.32937370	    -19.22560596	      9.06686578	     -3.15373205	     -3.84247596	     -0.84693453	     26.07196336	     36.67903024	     28.70769583	     -9.18384309	      1.27047697	     -6.60769229	      0.00000000	      0.00000000	      0.00000000	      0.00000000	      0.00165391	      0.00000000	      0.00000000	      0.00000000	      0.00000000	      0.00000000	      0.00000000	      0.00000000	     -1.25087862	    -15.61326646	      2.72636397	      9.08966928
      0.02083333	     -3.97035896	     -8.65657268	     -8.44376826	     -0.72879247	      1.03441103	      0.32976184	    -19.44471319	      8.99601374	     -3.05990089	     -4.11227282	     -0.88647060	     26.12775339	     36.74232034	     28.74299449	     -9.18806739	      1.29171075	     -6.90467443	      0.00000000	      0.00000000	      0.00000000	      0.00000000	      0.00137407	      0.00000000	      0.00000000	      0.00000000	      0.00000000	      0.00000000	      0.00000000	      0.00000000	     -1.70003147	    -15.61250439	      2.66440008	      9.17542433
      0.02500000	     -3.73741859	     -8.67871624	     -8.82626306	     -0.72290502	      1.03373041	      0.33053629	    -19.68732313	      8.74309005	     -3.04917071	     -4.73337626	     -0.89948931	     26.73736970	     38.28304301	     28.40351506	     -9.29993660	      0.98984208	     -7.05857679	      0.00000000	      0.00000000	      0.00000000	      0.00000000	      0.00083552	      0.00000000	      0.00000000	      0.00000000	      0.00000000	      0.00000000	      0.00000000	      0.00000000	     -2.23126012	    -15.98421146	      2.37077082	     10.04460273
      0.02916667	     -3.71366633	     -8.70742187	     -8.89723524	     -0.71670881	      1.03253107	      0.33073305	    -19.91641413	      8.67000828	     -2.96126704	     -4.97425234	     -0.95898151	     26.76363225	     38.33384767	     28.47447065	     -9.26321241	      1.03768966	     -7.47024253	      0.00000000	      0.00000000	      0.00000000	      0.00000000	      0.00046852	      0.00000000	      0.00000000	      0.00000000	      0.00000000	      0.00000000	      0.00000000	      0.00000000	     -2.63764174	    -15.93079186	      2.32860629	     10.04508017
      0.03333333	     -3.69570661	     -8.74976959	     -8.99275518	     -0.71054125	      1.03133456	      0.33108111	    -20.09974404	      8.60706809	     -2.86647638	     -5.28356059	     -1.05359293	     26.79847829	     38.41352962	     28.53421565	     -9.27106597	      1.10147473	     -7.88471542	      0.00000000	      0.00000000	      0.00000000	      0.00000000	     -0.00003892	      0.00000000	      0.00000000	      0.00000000	      0.00000000	      0.00000000	      0.00000000	      0.00000000	     -3.11714279	    -15.91720385	      2.25544157	     10.06765978
      0.03750000	     -3.69779746	     -8.82406403	     -9.15875922	     -0.70444113	      1.03020579	      0.33148211	    -20.16077544	      8.54393002	     -2.76459770	     -5.77705693	     -1.23972058	     26.86767994	     38.63059843	     28.58279707	     -9.34892746	      1.15925080	     -8.29985688	      0.00000000	      0.00000000	      0.00000000	      0.00000000	     -0.00061816	      0.00000000	      0.00000000	      0.00000000	      0.00000000	      0.00000000	      0.00000000	      0.00000000	     -3.65781406	    -16.00502214	      2.15348698	     10.17779068
      0.04166667	     -3.71588578	     -8.80016893	     -9.31303757	     -0.69808739	      1.02893351	      0.33189393	    -20.08397538	      8.32282800	     -3.23299750	     -6.40580002	     -1.62232651	     27.60960397	     43.90174917	     28.67041540	     -9.32921068	      1.09303543	     -8.81330520	      0.00000000	      0.00000000	      0.00000000	      0.00000000	     -0.00122418	      0.00000000	      0.00000000	      0.00000000	      0.00000000	      0.00000000	      0.00000000	      0.00000000	     -4.02676649	    -15.92146088	      2.00739045	     10.48867514
      0.04583333	     -3.66494921	     -8.82402860	     -9.37151900	     -0.69175564	      1.02787245	      0.33211821	    -20.28659423	      8.23599731	     -3.11325291	     -6.72185203	     -1.73483459	     27.60751011	     43.92426155	     28.70751972	     -9.30608187	      1.12240108	     -9.37396021	      0.00000000	      0.00000000	      0.00000000	      0.00000000	     -0.00183226	      0.00000000	      0.00000000	      0.00000000	      0.00000000	      0.00000000	      0.00000000	      0.00000000	     -4.39001204	    -15.87443509	      1.93410603	     10.49671885
